name rise31.4854peak64.571fall78.6902.mot
datacolumns 19
datarows 15
range 10.06662900000000 10.08996300000000
endheader
time	ground_force1_vx	ground_force1_vy	ground_force1_vz	ground_force1_px	ground_force1_py	ground_force1_pz	ground_force2_vx	ground_force2_vy	ground_force2_vz	ground_force2_px	ground_force2_py	ground_force2_pz	ground_torque1_x	ground_torque1_y	ground_torque1_z	ground_torque2_x	ground_torque2_y	ground_torque2_z	
10.06662900000000	-0.50042000000000	698.21333200000004	32.50019300000000	0.19016200000000	0.00000000000000	0.08197200000000	0.00000000000000	0.00000000000000	0.00000000000000	0.00000000000000	0.00000000000000	0.00000000000000	0.00000000000000	12.64604400000000	0.00000000000000	0.00000000000000	0.00000000000000	0.00000000000000	
10.06829600000000	-1.19587600000000	699.82346399999994	32.48707100000000	0.18892000000000	0.00000000000000	0.08200100000000	0.00000000000000	0.00000000000000	0.00000000000000	0.00000000000000	0.00000000000000	0.00000000000000	0.00000000000000	12.71749600000000	0.00000000000000	0.00000000000000	0.00000000000000	0.00000000000000	
10.06996000000000	-1.90402100000000	701.46046799999999	32.47597000000000	0.18766900000000	0.00000000000000	0.08203000000000	0.00000000000000	0.00000000000000	0.00000000000000	0.00000000000000	0.00000000000000	0.00000000000000	0.00000000000000	12.79192300000000	0.00000000000000	0.00000000000000	0.00000000000000	0.00000000000000	
10.07162800000000	-2.62468200000000	703.12406499999997	32.46700300000000	0.18641200000000	0.00000000000000	0.08205900000000	0.00000000000000	0.00000000000000	0.00000000000000	0.00000000000000	0.00000000000000	0.00000000000000	0.00000000000000	12.86931000000000	0.00000000000000	0.00000000000000	0.00000000000000	0.00000000000000	
10.07329300000000	-3.35765100000000	704.81403399999999	32.46029700000000	0.18514900000000	0.00000000000000	0.08208800000000	0.00000000000000	0.00000000000000	0.00000000000000	0.00000000000000	0.00000000000000	0.00000000000000	0.00000000000000	12.94963800000000	0.00000000000000	0.00000000000000	0.00000000000000	0.00000000000000	
10.07496500000000	-4.10268600000000	706.53020400000003	32.45598900000000	0.18388100000000	0.00000000000000	0.08211700000000	0.00000000000000	0.00000000000000	0.00000000000000	0.00000000000000	0.00000000000000	0.00000000000000	0.00000000000000	13.03288600000000	0.00000000000000	0.00000000000000	0.00000000000000	0.00000000000000	
10.07662900000000	-4.85951500000000	708.27245800000003	32.45422700000000	0.18260900000000	0.00000000000000	0.08214600000000	0.00000000000000	0.00000000000000	0.00000000000000	0.00000000000000	0.00000000000000	0.00000000000000	0.00000000000000	13.11902700000000	0.00000000000000	0.00000000000000	0.00000000000000	0.00000000000000	
10.07829300000000	-5.62783300000000	710.04071699999997	32.45517100000000	0.18133500000000	0.00000000000000	0.08217500000000	0.00000000000000	0.00000000000000	0.00000000000000	0.00000000000000	0.00000000000000	0.00000000000000	0.00000000000000	13.20803200000000	0.00000000000000	0.00000000000000	0.00000000000000	0.00000000000000	
10.07996500000000	-6.40730300000000	711.83494199999996	32.45898800000000	0.18006000000000	0.00000000000000	0.08220400000000	0.00000000000000	0.00000000000000	0.00000000000000	0.00000000000000	0.00000000000000	0.00000000000000	0.00000000000000	13.29986500000000	0.00000000000000	0.00000000000000	0.00000000000000	0.00000000000000	
10.08162900000000	-7.19755700000000	713.65512699999999	32.46585500000000	0.17878400000000	0.00000000000000	0.08223300000000	0.00000000000000	0.00000000000000	0.00000000000000	0.00000000000000	0.00000000000000	0.00000000000000	0.00000000000000	13.39448600000000	0.00000000000000	0.00000000000000	0.00000000000000	0.00000000000000	
10.08330100000000	-7.99820200000000	715.50129000000004	32.47595700000000	0.17750900000000	0.00000000000000	0.08226200000000	0.00000000000000	0.00000000000000	0.00000000000000	0.00000000000000	0.00000000000000	0.00000000000000	0.00000000000000	13.49184900000000	0.00000000000000	0.00000000000000	0.00000000000000	0.00000000000000	
10.08496600000000	-8.80881000000000	717.37347100000000	32.48948700000000	0.17623600000000	0.00000000000000	0.08229100000000	0.00000000000000	0.00000000000000	0.00000000000000	0.00000000000000	0.00000000000000	0.00000000000000	0.00000000000000	13.59190300000000	0.00000000000000	0.00000000000000	0.00000000000000	0.00000000000000	
10.08663100000000	-9.62893100000000	719.27171999999996	32.50664500000000	0.17496700000000	0.00000000000000	0.08231900000000	0.00000000000000	0.00000000000000	0.00000000000000	0.00000000000000	0.00000000000000	0.00000000000000	0.00000000000000	13.69459000000000	0.00000000000000	0.00000000000000	0.00000000000000	0.00000000000000	
10.08829900000000	-10.45808400000000	721.19609400000002	32.52763500000000	0.17370100000000	0.00000000000000	0.08234700000000	0.00000000000000	0.00000000000000	0.00000000000000	0.00000000000000	0.00000000000000	0.00000000000000	0.00000000000000	13.79984600000000	0.00000000000000	0.00000000000000	0.00000000000000	0.00000000000000	
10.08996300000000	-11.29576400000000	723.14664900000002	32.55267000000000	0.17244000000000	0.00000000000000	0.08237500000000	0.00000000000000	0.00000000000000	0.00000000000000	0.00000000000000	0.00000000000000	0.00000000000000	0.00000000000000	13.90760200000000	0.00000000000000	0.00000000000000	0.00000000000000	0.00000000000000	
